<svg xmlns="http://www.w3.org/2000/svg" viewBox="0 0 48 48" width="48" height="48">
  <rect width="48" height="48" rx="6" fill="#FFFFFF" />
  <g transform="translate(6,6) scale(0.75)">
    <path d="M12 4c2.2 0 4 0.9 5.3 2.3l3.8-3.8C19.2 0.9 15.8 0 12 0 6.5 0 1.7 2.7 0 6.6l4.5 3.5C5.6 6 8.4 4 12 4z" fill="#4285F4"/>
    <path d="M24 12c0-1.2-0.1-2.3-0.4-3.4H12v6.6h6.8C18.9 15.3 18 17.4 16 18.8l4 3.1C23.3 20.5 24 16.6 24 12z" fill="#34A853"/>
    <path d="M4.5 25.9C6.2 29.2 9.8 31.2 13.9 31.2c3.5 0 6.3-1.2 8.1-3.1l-4-3.1c-1 0.7-2.6 1.7-4.1 1.7-2.9 0-5.3-1.9-6.2-4.4l-4.2 3.6z" fill="#FBBC05"/>
    <path d="M12 34c3.8 0 7.2-1.3 9.6-3.6l-4-3.1c-1 0.9-3 1.9-5.6 1.9-3.8 0-7.1-2.5-8.4-6.1L0 26.6C1.7 31.3 6.4 34 12 34z" fill="#EA4335"/>
  </g>
</svg>
