<svg xmlns="http://www.w3.org/2000/svg" xmlns:xlink="http://www.w3.org/1999/xlink" width="500" zoomAndPan="magnify" viewBox="0 0 375 374.999991" height="500" preserveAspectRatio="xMidYMid meet" version="1.0"><defs><clipPath id="6900f1377f"><path d="M 64.644531 10.136719 L 326.394531 10.136719 L 326.394531 364.886719 L 64.644531 364.886719 Z M 64.644531 10.136719 " clip-rule="nonzero"/></clipPath><clipPath id="2fd8a989e8"><path d="M 88 71 L 288.644531 71 L 288.644531 289 L 88 289 Z M 88 71 " clip-rule="nonzero"/></clipPath></defs><rect x="-37.5" width="450" fill="#ffffff" y="-37.499999" height="449.999989" fill-opacity="1"/><rect x="-37.5" width="450" fill="#0d1b2c" y="-37.499999" height="449.999989" fill-opacity="1"/><g clip-path="url(#6900f1377f)"><path fill="#a46431" d="M 212.078125 334.523438 C 212.078125 341.628906 206.316406 347.386719 199.210938 347.386719 C 192.105469 347.386719 186.347656 341.628906 186.347656 334.523438 C 186.347656 327.417969 192.105469 321.65625 199.210938 321.65625 C 206.316406 321.65625 212.078125 327.417969 212.078125 334.523438 Z M 307.066406 313.03125 L 84.144531 313.03125 L 84.144531 49.339844 L 307.066406 49.339844 Z M 90.789062 364.59375 L 300.421875 364.59375 C 314.863281 364.59375 326.609375 352.847656 326.609375 338.410156 L 326.609375 36.664062 C 326.609375 22.226562 314.863281 10.480469 300.421875 10.480469 L 90.789062 10.480469 C 76.351562 10.480469 64.601562 22.226562 64.601562 36.664062 L 64.601562 338.410156 C 64.601562 352.847656 76.351562 364.59375 90.789062 364.59375 " fill-opacity="1" fill-rule="nonzero"/></g><g clip-path="url(#2fd8a989e8)"><path fill="#a46431" d="M 157.796875 251.542969 C 166.632812 251.542969 171.105469 262.292969 164.839844 268.554688 C 159.070312 274.328125 149.234375 271.066406 147.945312 263.117188 L 138.722656 263.117188 C 137.4375 271.066406 127.605469 274.328125 121.828125 268.554688 C 116.730469 263.457031 118.589844 254.847656 125.242188 252.230469 C 125.320312 251.15625 125.453125 250.097656 125.636719 249.0625 C 125.90625 247.535156 126.289062 245.996094 126.792969 244.445312 L 119.933594 217.308594 C 119.230469 214.003906 115.144531 211.507812 112.023438 211.507812 C 110.207031 211.507812 108.746094 210.046875 108.746094 208.230469 C 108.746094 206.421875 110.207031 204.953125 112.023438 204.953125 C 117.238281 204.953125 123.105469 208.324219 125.480469 213.460938 L 176.117188 213.410156 C 180.019531 213.410156 182.542969 215.875 181.71875 219.472656 L 176.703125 241.367188 C 175.605469 246.140625 171.605469 249.671875 166.644531 249.671875 L 166.644531 249.65625 L 135.988281 249.65625 L 135.988281 249.671875 L 132.191406 249.621094 L 131.824219 251.992188 C 134.253906 252.738281 136.28125 254.378906 137.53125 256.558594 L 149.140625 256.558594 C 150.878906 253.519531 154.144531 251.542969 157.796875 251.542969 Z M 160.210938 259.109375 C 158.046875 256.945312 154.386719 258.5 154.386719 261.511719 C 154.386719 264.546875 158.0625 266.074219 160.210938 263.925781 C 161.535156 262.597656 161.535156 260.433594 160.210938 259.109375 Z M 131.292969 259.109375 C 129.160156 256.960938 125.46875 258.484375 125.46875 261.511719 C 125.46875 264.546875 129.160156 266.074219 131.292969 263.925781 C 132.632812 262.597656 132.625 260.433594 131.292969 259.109375 Z M 133.375 243.78125 C 133.601562 244.699219 133.816406 243.144531 135.035156 243.132812 C 136.164062 243.132812 134.585938 243.117188 135.988281 243.117188 L 135.988281 243.132812 L 166.644531 243.132812 L 166.644531 243.117188 C 168.539062 243.117188 169.90625 241.722656 170.316406 239.90625 L 174.898438 219.933594 L 127.359375 219.984375 Z M 147.9375 179.40625 C 178.972656 182.035156 201.734375 210.25 197.394531 241.445312 L 237.75 227.933594 L 237.75 79.113281 L 147.9375 109.195312 L 147.9375 119.835938 L 153.390625 118.375 C 157.996094 117.140625 161.976562 120.421875 161.976562 125.128906 C 161.976562 128.675781 162.324219 131.207031 160.007812 134.300781 C 158.773438 135.945312 157.035156 137.230469 155.074219 137.765625 L 147.9375 139.675781 L 147.9375 147.734375 L 153.164062 146.328125 C 157.890625 145.070312 161.976562 148.410156 161.976562 153.257812 C 161.976562 156.679688 162.242188 159.070312 159.945312 162.148438 C 158.683594 163.847656 156.878906 165.171875 154.859375 165.71875 L 147.929688 167.578125 L 147.929688 179.40625 Z M 195.828125 248.859375 C 195.707031 249.273438 195.589844 249.683594 195.46875 250.097656 L 260.414062 238.417969 L 260.414062 89.976562 L 244.304688 95.378906 L 244.304688 230.269531 C 244.304688 231.8125 243.242188 233.113281 241.808594 233.453125 Z M 189.578125 262.890625 C 170.929688 292.5625 129.503906 297.378906 104.625 272.496094 C 83.285156 251.160156 83.285156 216.550781 104.625 195.210938 C 114.097656 185.738281 127.039062 179.726562 141.382812 179.234375 L 141.382812 169.324219 L 136.417969 170.648438 C 131.695312 171.90625 127.609375 168.566406 127.609375 163.71875 C 127.609375 160.296875 127.34375 157.90625 129.640625 154.828125 C 130.914062 153.128906 132.707031 151.804688 134.726562 151.257812 L 141.386719 149.480469 L 141.386719 141.421875 L 136.199219 142.816406 C 131.59375 144.054688 127.613281 140.769531 127.613281 136.0625 C 127.613281 132.519531 127.269531 129.984375 129.582031 126.890625 C 130.816406 125.246094 132.554688 123.960938 134.515625 123.425781 L 141.386719 121.597656 L 141.386719 106.84375 C 141.386719 105.304688 142.449219 104.015625 143.882812 103.660156 L 239.996094 71.46875 C 242.132812 70.75 244.292969 72.371094 244.292969 74.570312 L 244.308594 74.570312 L 244.308594 88.492188 L 262.660156 82.351562 C 264.785156 81.636719 266.957031 83.242188 266.957031 85.441406 L 266.972656 85.441406 L 266.972656 98.816406 L 284.355469 92.882812 C 286.488281 92.15625 288.679688 93.773438 288.679688 95.988281 L 288.679688 253.332031 C 288.679688 255.132812 287.21875 256.609375 285.417969 256.609375 Z M 177.273438 199.839844 C 158.496094 181.0625 128.039062 181.0625 109.253906 199.839844 C 90.476562 218.632812 90.476562 249.085938 109.253906 267.863281 C 128.042969 286.65625 158.496094 286.65625 177.273438 267.863281 C 196.050781 249.085938 196.050781 218.632812 177.273438 199.839844 Z M 154.859375 152.652344 L 136.414062 157.585938 C 135.25 157.890625 134.160156 159.445312 134.160156 160.703125 L 134.199219 164.125 C 134.265625 164.351562 134.324219 164.429688 134.71875 164.328125 L 153.164062 159.378906 C 154.332031 159.074219 155.421875 157.519531 155.421875 156.261719 L 155.378906 152.855469 C 155.3125 152.613281 155.257812 152.535156 154.859375 152.652344 Z M 155.074219 124.703125 L 136.191406 129.761719 C 135.15625 130.042969 134.160156 131.445312 134.160156 132.574219 C 134.160156 133.09375 134.035156 136.53125 134.265625 136.53125 L 153.390625 131.433594 C 154.425781 131.152344 155.421875 129.746094 155.421875 128.617188 C 155.421875 128.097656 155.542969 124.664062 155.3125 124.664062 C 155.234375 124.667969 155.15625 124.679688 155.074219 124.703125 Z M 167.90625 118.972656 L 224.984375 100.421875 C 227.109375 99.734375 229.273438 101.339844 229.273438 103.527344 L 229.273438 135.097656 C 229.273438 136.625 228.222656 137.910156 226.804688 138.265625 L 169.742188 156.832031 C 167.609375 157.519531 165.453125 155.90625 165.453125 153.714844 L 165.441406 153.714844 L 165.441406 122.15625 C 165.441406 120.617188 166.488281 119.332031 167.90625 118.972656 Z M 222.714844 108.039062 L 171.996094 124.523438 L 171.996094 149.214844 L 222.714844 132.722656 Z M 266.972656 105.714844 L 266.972656 241.152344 C 266.972656 242.863281 265.65625 244.269531 263.984375 244.414062 L 202.328125 255.496094 L 282.125 250.28125 L 282.125 100.554688 Z M 266.972656 105.714844 " fill-opacity="1" fill-rule="nonzero"/></g></svg>