<svg xmlns="http://www.w3.org/2000/svg" xmlns:xlink="http://www.w3.org/1999/xlink" width="42" zoomAndPan="magnify" viewBox="0 0 31.5 31.499999" height="42" preserveAspectRatio="xMidYMid meet" version="1.2"><defs><clipPath id="c28ca003c3"><path d="M 1.832031 2.207031 L 29.253906 2.207031 L 29.253906 28.800781 L 1.832031 28.800781 Z M 1.832031 2.207031 "/></clipPath><clipPath id="915ae2b89f"><path d="M 6.304688 2.207031 L 24.703125 2.207031 C 27.175781 2.207031 29.175781 4.210938 29.175781 6.683594 L 29.175781 24.324219 C 29.175781 26.796875 27.175781 28.800781 24.703125 28.800781 L 6.304688 28.800781 C 3.832031 28.800781 1.832031 26.796875 1.832031 24.324219 L 1.832031 6.683594 C 1.832031 4.210938 3.832031 2.207031 6.304688 2.207031 Z M 6.304688 2.207031 "/></clipPath><clipPath id="5efc2dd97b"><path d="M 20.257812 14.484375 L 23.984375 14.484375 L 23.984375 24.378906 L 20.257812 24.378906 Z M 20.257812 14.484375 "/></clipPath><clipPath id="441ca9df53"><path d="M 21.003906 14.484375 L 23.238281 14.484375 C 23.4375 14.484375 23.628906 14.566406 23.765625 14.703125 C 23.90625 14.84375 23.984375 15.035156 23.984375 15.230469 L 23.984375 23.625 C 23.984375 23.824219 23.90625 24.015625 23.765625 24.152344 C 23.628906 24.292969 23.4375 24.371094 23.238281 24.371094 L 21.003906 24.371094 C 20.804688 24.371094 20.613281 24.292969 20.472656 24.152344 C 20.335938 24.015625 20.257812 23.824219 20.257812 23.625 L 20.257812 15.230469 C 20.257812 15.035156 20.335938 14.84375 20.472656 14.703125 C 20.613281 14.566406 20.804688 14.484375 21.003906 14.484375 Z M 21.003906 14.484375 "/></clipPath><clipPath id="4177dacda5"><path d="M 15.289062 17.769531 L 19.167969 17.769531 L 19.167969 24.375 L 15.289062 24.375 Z M 15.289062 17.769531 "/></clipPath><clipPath id="fbd11fc7d3"><path d="M 16.035156 17.769531 L 18.421875 17.769531 C 18.621094 17.769531 18.8125 17.847656 18.949219 17.988281 C 19.089844 18.125 19.167969 18.316406 19.167969 18.515625 L 19.167969 23.625 C 19.167969 23.824219 19.089844 24.015625 18.949219 24.152344 C 18.8125 24.292969 18.621094 24.371094 18.421875 24.371094 L 16.035156 24.371094 C 15.839844 24.371094 15.648438 24.292969 15.507812 24.152344 C 15.367188 24.015625 15.289062 23.824219 15.289062 23.625 L 15.289062 18.515625 C 15.289062 18.316406 15.367188 18.125 15.507812 17.988281 C 15.648438 17.847656 15.839844 17.769531 16.035156 17.769531 Z M 16.035156 17.769531 "/></clipPath><clipPath id="32dd082dc2"><path d="M 10.324219 18.730469 L 14.203125 18.730469 L 14.203125 24.382812 L 10.324219 24.382812 Z M 10.324219 18.730469 "/></clipPath><clipPath id="7507de5637"><path d="M 11.070312 18.730469 L 13.457031 18.730469 C 13.65625 18.730469 13.84375 18.808594 13.984375 18.949219 C 14.125 19.089844 14.203125 19.277344 14.203125 19.476562 L 14.203125 23.625 C 14.203125 23.824219 14.125 24.015625 13.984375 24.152344 C 13.84375 24.292969 13.65625 24.371094 13.457031 24.371094 L 11.070312 24.371094 C 10.871094 24.371094 10.683594 24.292969 10.542969 24.152344 C 10.402344 24.015625 10.324219 23.824219 10.324219 23.625 L 10.324219 19.476562 C 10.324219 19.277344 10.402344 19.089844 10.542969 18.949219 C 10.683594 18.808594 10.871094 18.730469 11.070312 18.730469 Z M 11.070312 18.730469 "/></clipPath><clipPath id="6df94f1c64"><path d="M 5.359375 20.644531 L 9.25 20.644531 L 9.25 24.371094 L 5.359375 24.371094 Z M 5.359375 20.644531 "/></clipPath><clipPath id="d14f689351"><path d="M 6.105469 20.644531 L 8.492188 20.644531 C 8.691406 20.644531 8.878906 20.722656 9.019531 20.863281 C 9.160156 21 9.238281 21.191406 9.238281 21.390625 L 9.238281 23.625 C 9.238281 23.824219 9.160156 24.015625 9.019531 24.152344 C 8.878906 24.292969 8.691406 24.371094 8.492188 24.371094 L 6.105469 24.371094 C 5.90625 24.371094 5.71875 24.292969 5.578125 24.152344 C 5.4375 24.015625 5.359375 23.824219 5.359375 23.625 L 5.359375 21.390625 C 5.359375 21.191406 5.4375 21 5.578125 20.863281 C 5.71875 20.722656 5.90625 20.644531 6.105469 20.644531 Z M 6.105469 20.644531 "/></clipPath><clipPath id="10f92fddde"><path d="M 5.359375 5.667969 L 24.75 5.667969 L 24.75 19 L 5.359375 19 Z M 5.359375 5.667969 "/></clipPath></defs><g id="63010303df"><g clip-rule="nonzero" clip-path="url(#c28ca003c3)"><g clip-rule="nonzero" clip-path="url(#915ae2b89f)"><path style=" stroke:none;fill-rule:nonzero;fill:#055fb7;fill-opacity:1;" d="M 1.832031 2.207031 L 29.152344 2.207031 L 29.152344 28.800781 L 1.832031 28.800781 Z M 1.832031 2.207031 "/></g></g><g clip-rule="nonzero" clip-path="url(#5efc2dd97b)"><g clip-rule="nonzero" clip-path="url(#441ca9df53)"><path style=" stroke:none;fill-rule:nonzero;fill:#ffffff;fill-opacity:1;" d="M 20.257812 14.484375 L 23.984375 14.484375 L 23.984375 24.378906 L 20.257812 24.378906 Z M 20.257812 14.484375 "/></g></g><g clip-rule="nonzero" clip-path="url(#4177dacda5)"><g clip-rule="nonzero" clip-path="url(#fbd11fc7d3)"><path style=" stroke:none;fill-rule:nonzero;fill:#ffffff;fill-opacity:1;" d="M 15.289062 17.769531 L 19.167969 17.769531 L 19.167969 24.375 L 15.289062 24.375 Z M 15.289062 17.769531 "/></g></g><g clip-rule="nonzero" clip-path="url(#32dd082dc2)"><g clip-rule="nonzero" clip-path="url(#7507de5637)"><path style=" stroke:none;fill-rule:nonzero;fill:#ffffff;fill-opacity:1;" d="M 10.324219 18.730469 L 14.203125 18.730469 L 14.203125 24.367188 L 10.324219 24.367188 Z M 10.324219 18.730469 "/></g></g><g clip-rule="nonzero" clip-path="url(#6df94f1c64)"><g clip-rule="nonzero" clip-path="url(#d14f689351)"><path style=" stroke:none;fill-rule:nonzero;fill:#ffffff;fill-opacity:1;" d="M 5.359375 20.644531 L 9.234375 20.644531 L 9.234375 24.371094 L 5.359375 24.371094 Z M 5.359375 20.644531 "/></g></g><g clip-rule="nonzero" clip-path="url(#10f92fddde)"><path style=" stroke:none;fill-rule:nonzero;fill:#ffffff;fill-opacity:1;" d="M 19.121094 6.386719 L 20.375 7.667969 L 15.675781 12.226562 L 12.765625 9.253906 L 5.398438 16.472656 L 7.726562 18.484375 L 12.714844 13.589844 L 15.613281 16.554688 L 15.617188 16.550781 L 15.621094 16.554688 L 22.515625 9.867188 L 23.949219 11.335938 L 24.707031 5.667969 L 19.121094 6.386719 "/></g></g></svg>