<svg xmlns="http://www.w3.org/2000/svg" xmlns:xlink="http://www.w3.org/1999/xlink" width="1134" zoomAndPan="magnify" viewBox="0 0 850.5 850.499973" height="1134" preserveAspectRatio="xMidYMid meet" version="1.2"><defs><clipPath id="4ba01a37ea"><path d="M 50.167969 60.496094 L 800 60.496094 L 800 789.503906 L 50.167969 789.503906 Z M 50.167969 60.496094 "/></clipPath><clipPath id="9ba84e2e67"><path d="M 172.839844 60.496094 L 677.160156 60.496094 C 744.910156 60.496094 799.832031 115.417969 799.832031 183.167969 L 799.832031 666.832031 C 799.832031 734.582031 744.910156 789.503906 677.160156 789.503906 L 172.839844 789.503906 C 105.089844 789.503906 50.167969 734.582031 50.167969 666.832031 L 50.167969 183.167969 C 50.167969 115.417969 105.089844 60.496094 172.839844 60.496094 Z M 172.839844 60.496094 "/></clipPath><clipPath id="bbb7272283"><path d="M 555.269531 397.097656 L 657.496094 397.097656 L 657.496094 668.234375 L 555.269531 668.234375 Z M 555.269531 397.097656 "/></clipPath><clipPath id="bcf184c5d2"><path d="M 575.714844 397.097656 L 637.050781 397.097656 C 642.472656 397.097656 647.671875 399.253906 651.507812 403.085938 C 655.339844 406.921875 657.496094 412.121094 657.496094 417.542969 L 657.496094 647.65625 C 657.496094 653.082031 655.339844 658.28125 651.507812 662.113281 C 647.671875 665.949219 642.472656 668.101562 637.050781 668.101562 L 575.714844 668.101562 C 570.292969 668.101562 565.09375 665.949219 561.257812 662.113281 C 557.425781 658.28125 555.269531 653.082031 555.269531 647.65625 L 555.269531 417.542969 C 555.269531 412.121094 557.425781 406.921875 561.257812 403.085938 C 565.09375 399.253906 570.292969 397.097656 575.714844 397.097656 Z M 575.714844 397.097656 "/></clipPath><clipPath id="1d948c7213"><path d="M 419.152344 487.0625 L 525.464844 487.0625 L 525.464844 668.128906 L 419.152344 668.128906 Z M 419.152344 487.0625 "/></clipPath><clipPath id="2740877c02"><path d="M 439.597656 487.0625 L 505.019531 487.0625 C 510.441406 487.0625 515.644531 489.21875 519.476562 493.050781 C 523.3125 496.886719 525.464844 502.085938 525.464844 507.507812 L 525.464844 647.65625 C 525.464844 653.082031 523.3125 658.28125 519.476562 662.113281 C 515.644531 665.949219 510.441406 668.101562 505.019531 668.101562 L 439.597656 668.101562 C 434.171875 668.101562 428.972656 665.949219 425.140625 662.113281 C 421.304688 658.28125 419.152344 653.082031 419.152344 647.65625 L 419.152344 507.507812 C 419.152344 502.085938 421.304688 496.886719 425.140625 493.050781 C 428.972656 489.21875 434.171875 487.0625 439.597656 487.0625 Z M 439.597656 487.0625 "/></clipPath><clipPath id="b7b027a562"><path d="M 283.03125 513.457031 L 389.347656 513.457031 L 389.347656 668 L 283.03125 668 Z M 283.03125 513.457031 "/></clipPath><clipPath id="f6bb70f4d8"><path d="M 303.476562 513.457031 L 368.902344 513.457031 C 374.324219 513.457031 379.523438 515.613281 383.359375 519.445312 C 387.191406 523.28125 389.347656 528.480469 389.347656 533.902344 L 389.347656 647.65625 C 389.347656 653.082031 387.191406 658.28125 383.359375 662.113281 C 379.523438 665.949219 374.324219 668.101562 368.902344 668.101562 L 303.476562 668.101562 C 298.054688 668.101562 292.855469 665.949219 289.019531 662.113281 C 285.1875 658.28125 283.03125 653.082031 283.03125 647.65625 L 283.03125 533.902344 C 283.03125 528.480469 285.1875 523.28125 289.019531 519.445312 C 292.855469 515.613281 298.054688 513.457031 303.476562 513.457031 Z M 303.476562 513.457031 "/></clipPath><clipPath id="715b87be9a"><path d="M 146.914062 565.878906 L 253.53125 565.878906 L 253.53125 668.101562 L 146.914062 668.101562 Z M 146.914062 565.878906 "/></clipPath><clipPath id="9a1926f424"><path d="M 167.359375 565.878906 L 232.78125 565.878906 C 238.203125 565.878906 243.40625 568.03125 247.238281 571.867188 C 251.074219 575.699219 253.226562 580.898438 253.226562 586.324219 L 253.226562 647.65625 C 253.226562 653.082031 251.074219 658.28125 247.238281 662.113281 C 243.40625 665.949219 238.203125 668.101562 232.78125 668.101562 L 167.359375 668.101562 C 161.9375 668.101562 156.734375 665.949219 152.902344 662.113281 C 149.066406 658.28125 146.914062 653.082031 146.914062 647.65625 L 146.914062 586.324219 C 146.914062 580.898438 149.066406 575.699219 152.902344 571.867188 C 156.734375 568.03125 161.9375 565.878906 167.359375 565.878906 Z M 167.359375 565.878906 "/></clipPath><clipPath id="9383ec42fa"><path d="M 147 155.390625 L 688 155.390625 L 688 513.722656 L 147 513.722656 Z M 147 155.390625 "/></clipPath></defs><g id="4aa5ef08bd"><g clip-rule="nonzero" clip-path="url(#4ba01a37ea)"><g clip-rule="nonzero" clip-path="url(#9ba84e2e67)"><path style=" stroke:none;fill-rule:nonzero;fill:#055fb7;fill-opacity:1;" d="M 50.167969 60.496094 L 799.109375 60.496094 L 799.109375 789.503906 L 50.167969 789.503906 Z M 50.167969 60.496094 "/></g></g><g clip-rule="nonzero" clip-path="url(#bbb7272283)"><g clip-rule="nonzero" clip-path="url(#bcf184c5d2)"><path style=" stroke:none;fill-rule:nonzero;fill:#ffffff;fill-opacity:1;" d="M 555.269531 397.097656 L 657.496094 397.097656 L 657.496094 668.234375 L 555.269531 668.234375 Z M 555.269531 397.097656 "/></g></g><g clip-rule="nonzero" clip-path="url(#1d948c7213)"><g clip-rule="nonzero" clip-path="url(#2740877c02)"><path style=" stroke:none;fill-rule:nonzero;fill:#ffffff;fill-opacity:1;" d="M 419.152344 487.0625 L 525.464844 487.0625 L 525.464844 668.128906 L 419.152344 668.128906 Z M 419.152344 487.0625 "/></g></g><g clip-rule="nonzero" clip-path="url(#b7b027a562)"><g clip-rule="nonzero" clip-path="url(#f6bb70f4d8)"><path style=" stroke:none;fill-rule:nonzero;fill:#ffffff;fill-opacity:1;" d="M 283.03125 513.457031 L 389.347656 513.457031 L 389.347656 667.945312 L 283.03125 667.945312 Z M 283.03125 513.457031 "/></g></g><g clip-rule="nonzero" clip-path="url(#715b87be9a)"><g clip-rule="nonzero" clip-path="url(#9a1926f424)"><path style=" stroke:none;fill-rule:nonzero;fill:#ffffff;fill-opacity:1;" d="M 146.914062 565.878906 L 253.132812 565.878906 L 253.132812 668.101562 L 146.914062 668.101562 Z M 146.914062 565.878906 "/></g></g><g clip-rule="nonzero" clip-path="url(#9383ec42fa)"><path style=" stroke:none;fill-rule:nonzero;fill:#ffffff;fill-opacity:1;" d="M 531.15625 175.445312 L 566.078125 211.246094 L 434.839844 338.617188 L 353.542969 255.511719 L 147.773438 457.140625 L 212.832031 513.324219 L 352.113281 376.652344 L 433.164062 459.507812 L 433.261719 459.402344 L 433.371094 459.507812 L 625.929688 272.617188 L 665.945312 313.652344 L 687.148438 155.355469 L 531.15625 175.445312 "/></g></g></svg>