<svg xmlns="http://www.w3.org/2000/svg" xmlns:xlink="http://www.w3.org/1999/xlink" width="447" zoomAndPan="magnify" viewBox="0 0 335.25 135.000003" height="180" preserveAspectRatio="xMidYMid meet" version="1.0"><defs><g/><clipPath id="7e305baa0a"><rect x="0" width="143" y="0" height="90"/></clipPath><clipPath id="9fa7a31325"><path d="M 14.261719 7.183594 L 104.34375 7.183594 L 104.34375 129.277344 L 14.261719 129.277344 Z M 14.261719 7.183594 " clip-rule="nonzero"/></clipPath><clipPath id="25c2864e3c"><path d="M 109 68 L 333.644531 68 L 333.644531 134.007812 L 109 134.007812 Z M 109 68 " clip-rule="nonzero"/></clipPath><clipPath id="a4c1d99722"><rect x="0" width="225" y="0" height="67"/></clipPath><clipPath id="d04514d090"><path d="M 22 28.03125 L 91.347656 28.03125 L 91.347656 103 L 22 103 Z M 22 28.03125 " clip-rule="nonzero"/></clipPath></defs><g transform="matrix(1, 0, 0, 1, 106, 5)"><g clip-path="url(#7e305baa0a)"><g fill="#a46431" fill-opacity="1"><g transform="translate(0.686439, 64.14364)"><g><path d="M 4.28125 -58.890625 L 25.34375 -58.890625 C 31 -58.890625 35.609375 -57.375 39.171875 -54.34375 C 42.742188 -51.320312 44.53125 -47.003906 44.53125 -41.390625 C 44.53125 -37.066406 43.445312 -33.441406 41.28125 -30.515625 C 39.125 -27.585938 36.1875 -25.53125 32.46875 -24.34375 L 52.75 0 L 35.6875 0 L 17.703125 -23.265625 L 17.703125 0 L 4.28125 0 Z M 17.703125 -32.765625 L 19.265625 -32.765625 C 20.503906 -32.765625 21.550781 -32.785156 22.40625 -32.828125 C 23.269531 -32.878906 24.25 -33.046875 25.34375 -33.328125 C 26.4375 -33.617188 27.316406 -34.023438 27.984375 -34.546875 C 28.648438 -35.066406 29.21875 -35.828125 29.6875 -36.828125 C 30.164062 -37.828125 30.40625 -39.039062 30.40625 -40.46875 C 30.40625 -41.894531 30.164062 -43.109375 29.6875 -44.109375 C 29.21875 -45.109375 28.648438 -45.867188 27.984375 -46.390625 C 27.316406 -46.910156 26.4375 -47.3125 25.34375 -47.59375 C 24.25 -47.882812 23.269531 -48.050781 22.40625 -48.09375 C 21.550781 -48.144531 20.503906 -48.171875 19.265625 -48.171875 L 17.703125 -48.171875 Z M 17.703125 -32.765625 "/></g></g></g><g fill="#a46431" fill-opacity="1"><g transform="translate(50.071101, 64.14364)"><g><path d="M 41.328125 -16.5625 L 14.78125 -16.5625 C 14.78125 -13.988281 15.609375 -12.082031 17.265625 -10.84375 C 18.929688 -9.613281 20.742188 -9 22.703125 -9 C 24.742188 -9 26.359375 -9.269531 27.546875 -9.8125 C 28.734375 -10.363281 30.09375 -11.445312 31.625 -13.0625 L 40.75 -8.5 C 36.945312 -2.113281 30.617188 1.078125 21.765625 1.078125 C 16.242188 1.078125 11.507812 -0.8125 7.5625 -4.59375 C 3.613281 -8.382812 1.640625 -12.941406 1.640625 -18.265625 C 1.640625 -23.597656 3.613281 -28.164062 7.5625 -31.96875 C 11.507812 -35.78125 16.242188 -37.6875 21.765625 -37.6875 C 27.578125 -37.6875 32.300781 -36.007812 35.9375 -32.65625 C 39.570312 -29.300781 41.390625 -24.503906 41.390625 -18.265625 C 41.390625 -17.410156 41.367188 -16.84375 41.328125 -16.5625 Z M 15.125 -23.546875 L 29.046875 -23.546875 C 28.765625 -25.453125 28.015625 -26.914062 26.796875 -27.9375 C 25.585938 -28.96875 24.03125 -29.484375 22.125 -29.484375 C 20.03125 -29.484375 18.363281 -28.929688 17.125 -27.828125 C 15.894531 -26.734375 15.226562 -25.304688 15.125 -23.546875 Z M 15.125 -23.546875 "/></g></g></g><g fill="#a46431" fill-opacity="1"><g transform="translate(92.961766, 64.14364)"><g><path d="M 41.96875 -32.078125 C 45.394531 -28.347656 47.109375 -23.769531 47.109375 -18.34375 C 47.109375 -12.914062 45.394531 -8.320312 41.96875 -4.5625 C 38.539062 -0.800781 34.1875 1.078125 28.90625 1.078125 C 24.050781 1.078125 20.054688 -0.445312 16.921875 -3.5 L 16.921875 18.5625 L 4.28125 18.5625 L 4.28125 -36.609375 L 16.765625 -36.609375 L 16.765625 -32.46875 L 16.921875 -32.46875 C 20.054688 -35.945312 24.050781 -37.6875 28.90625 -37.6875 C 34.1875 -37.6875 38.539062 -35.816406 41.96875 -32.078125 Z M 31.21875 -12.125 C 32.863281 -13.75 33.6875 -15.820312 33.6875 -18.34375 C 33.6875 -20.863281 32.898438 -22.921875 31.328125 -24.515625 C 29.765625 -26.109375 27.695312 -26.90625 25.125 -26.90625 C 22.644531 -26.90625 20.609375 -26.097656 19.015625 -24.484375 C 17.421875 -22.867188 16.625 -20.820312 16.625 -18.34375 C 16.625 -15.820312 17.445312 -13.75 19.09375 -12.125 C 20.738281 -10.507812 22.75 -9.703125 25.125 -9.703125 C 27.550781 -9.703125 29.582031 -10.507812 31.21875 -12.125 Z M 31.21875 -12.125 "/></g></g></g></g></g><g clip-path="url(#9fa7a31325)"><path fill="#a46431" d="M 64.957031 118.722656 C 64.957031 121.167969 62.976562 123.148438 60.53125 123.148438 C 58.089844 123.148438 56.109375 121.167969 56.109375 118.722656 C 56.109375 116.28125 58.089844 114.300781 60.53125 114.300781 C 62.976562 114.300781 64.957031 116.28125 64.957031 118.722656 Z M 97.621094 111.335938 L 20.964844 111.335938 L 20.964844 20.660156 L 97.621094 20.660156 Z M 23.25 129.0625 L 95.335938 129.0625 C 100.300781 129.0625 104.339844 125.023438 104.339844 120.058594 L 104.339844 16.304688 C 104.339844 11.339844 100.300781 7.300781 95.335938 7.300781 L 23.25 7.300781 C 18.285156 7.300781 14.246094 11.339844 14.246094 16.304688 L 14.246094 120.058594 C 14.246094 125.023438 18.285156 129.0625 23.25 129.0625 " fill-opacity="1" fill-rule="nonzero"/></g><g clip-path="url(#25c2864e3c)"><g transform="matrix(1, 0, 0, 1, 109, 68)"><g clip-path="url(#a4c1d99722)"><g fill="#a46431" fill-opacity="1"><g transform="translate(3.407615, 51.552828)"><g><path d="M 17.9375 0 L -1.578125 -46.546875 L 10.375 -46.546875 L 22.125 -15.96875 L 33.859375 -46.546875 L 45.8125 -46.546875 L 26.296875 0 Z M 17.9375 0 "/></g></g></g><g fill="#a46431" fill-opacity="1"><g transform="translate(43.685616, 51.552828)"><g><path d="M 32.671875 -13.09375 L 11.671875 -13.09375 C 11.671875 -11.0625 12.328125 -9.554688 13.640625 -8.578125 C 14.960938 -7.597656 16.394531 -7.109375 17.9375 -7.109375 C 19.5625 -7.109375 20.84375 -7.320312 21.78125 -7.75 C 22.71875 -8.1875 23.789062 -9.046875 25 -10.328125 L 32.21875 -6.71875 C 29.207031 -1.675781 24.203125 0.84375 17.203125 0.84375 C 12.835938 0.84375 9.09375 -0.648438 5.96875 -3.640625 C 2.851562 -6.628906 1.296875 -10.226562 1.296875 -14.4375 C 1.296875 -18.65625 2.851562 -22.269531 5.96875 -25.28125 C 9.09375 -28.289062 12.835938 -29.796875 17.203125 -29.796875 C 21.796875 -29.796875 25.53125 -28.46875 28.40625 -25.8125 C 31.28125 -23.15625 32.71875 -19.363281 32.71875 -14.4375 C 32.71875 -13.757812 32.703125 -13.3125 32.671875 -13.09375 Z M 11.96875 -18.625 L 22.96875 -18.625 C 22.738281 -20.125 22.144531 -21.273438 21.1875 -22.078125 C 20.226562 -22.890625 18.992188 -23.296875 17.484375 -23.296875 C 15.835938 -23.296875 14.523438 -22.863281 13.546875 -22 C 12.566406 -21.132812 12.039062 -20.007812 11.96875 -18.625 Z M 11.96875 -18.625 "/></g></g></g><g fill="#a46431" fill-opacity="1"><g transform="translate(77.589712, 51.552828)"><g><path d="M 3.390625 0 L 3.390625 -28.9375 L 13.375 -28.9375 L 13.375 -25.890625 L 13.484375 -25.890625 C 16.078125 -28.492188 18.84375 -29.796875 21.78125 -29.796875 C 23.207031 -29.796875 24.625 -29.601562 26.03125 -29.21875 C 27.445312 -28.84375 28.800781 -28.257812 30.09375 -27.46875 C 31.394531 -26.6875 32.445312 -25.570312 33.25 -24.125 C 34.0625 -22.675781 34.46875 -20.992188 34.46875 -19.078125 L 34.46875 0 L 24.484375 0 L 24.484375 -16.359375 C 24.484375 -17.867188 24.003906 -19.1875 23.046875 -20.3125 C 22.085938 -21.4375 20.835938 -22 19.296875 -22 C 17.796875 -22 16.429688 -21.414062 15.203125 -20.25 C 13.984375 -19.082031 13.375 -17.785156 13.375 -16.359375 L 13.375 0 Z M 3.390625 0 "/></g></g></g><g fill="#a46431" fill-opacity="1"><g transform="translate(114.878607, 51.552828)"><g><path d="M 5.359375 -3.578125 C 2.648438 -6.535156 1.296875 -10.15625 1.296875 -14.4375 C 1.296875 -18.726562 2.648438 -22.359375 5.359375 -25.328125 C 8.066406 -28.304688 11.507812 -29.796875 15.6875 -29.796875 C 19.519531 -29.796875 22.679688 -28.59375 25.171875 -26.1875 L 25.171875 -48.515625 L 35.15625 -48.515625 L 35.15625 0 L 25.28125 0 L 25.28125 -3.265625 L 25.171875 -3.265625 C 22.679688 -0.523438 19.519531 0.84375 15.6875 0.84375 C 11.507812 0.84375 8.066406 -0.628906 5.359375 -3.578125 Z M 13.84375 -19.34375 C 12.550781 -18.070312 11.90625 -16.4375 11.90625 -14.4375 C 11.90625 -12.445312 12.523438 -10.820312 13.765625 -9.5625 C 15.003906 -8.300781 16.640625 -7.671875 18.671875 -7.671875 C 20.628906 -7.671875 22.238281 -8.3125 23.5 -9.59375 C 24.757812 -10.875 25.390625 -12.488281 25.390625 -14.4375 C 25.390625 -16.4375 24.738281 -18.070312 23.4375 -19.34375 C 22.144531 -20.625 20.554688 -21.265625 18.671875 -21.265625 C 16.753906 -21.265625 15.144531 -20.625 13.84375 -19.34375 Z M 13.84375 -19.34375 "/></g></g></g><g fill="#a46431" fill-opacity="1"><g transform="translate(153.408565, 51.552828)"><g><path d="M 5.359375 -3.578125 C 2.648438 -6.535156 1.296875 -10.15625 1.296875 -14.4375 C 1.296875 -18.726562 2.648438 -22.359375 5.359375 -25.328125 C 8.066406 -28.304688 11.507812 -29.796875 15.6875 -29.796875 C 19.519531 -29.796875 22.679688 -28.59375 25.171875 -26.1875 L 25.171875 -28.9375 L 35.15625 -28.9375 L 35.15625 0 L 25.28125 0 L 25.28125 -3.265625 L 25.171875 -3.265625 C 22.679688 -0.523438 19.519531 0.84375 15.6875 0.84375 C 11.507812 0.84375 8.066406 -0.628906 5.359375 -3.578125 Z M 13.84375 -19.34375 C 12.550781 -18.070312 11.90625 -16.4375 11.90625 -14.4375 C 11.90625 -12.445312 12.523438 -10.820312 13.765625 -9.5625 C 15.003906 -8.300781 16.640625 -7.671875 18.671875 -7.671875 C 20.628906 -7.671875 22.238281 -8.3125 23.5 -9.59375 C 24.757812 -10.875 25.390625 -12.488281 25.390625 -14.4375 C 25.390625 -16.4375 24.738281 -18.070312 23.4375 -19.34375 C 22.144531 -20.625 20.554688 -21.265625 18.671875 -21.265625 C 16.753906 -21.265625 15.144531 -20.625 13.84375 -19.34375 Z M 13.84375 -19.34375 "/></g></g></g><g fill="#a46431" fill-opacity="1"><g transform="translate(191.712807, 51.552828)"><g><path d="M 15.96875 -29.796875 C 17.625 -29.796875 19.257812 -29.601562 20.875 -29.21875 C 22.488281 -28.84375 23.691406 -28.46875 24.484375 -28.09375 L 25.671875 -27.53125 L 22.40625 -20.984375 C 20.144531 -22.191406 18 -22.796875 15.96875 -22.796875 C 14.84375 -22.796875 14.039062 -22.671875 13.5625 -22.421875 C 13.09375 -22.179688 12.859375 -21.722656 12.859375 -21.046875 C 12.859375 -20.890625 12.878906 -20.738281 12.921875 -20.59375 C 12.960938 -20.445312 13.035156 -20.304688 13.140625 -20.171875 C 13.253906 -20.035156 13.359375 -19.921875 13.453125 -19.828125 C 13.546875 -19.734375 13.707031 -19.628906 13.9375 -19.515625 C 14.164062 -19.410156 14.34375 -19.328125 14.46875 -19.265625 C 14.601562 -19.210938 14.820312 -19.128906 15.125 -19.015625 C 15.425781 -18.898438 15.648438 -18.8125 15.796875 -18.75 C 15.953125 -18.695312 16.207031 -18.613281 16.5625 -18.5 C 16.914062 -18.394531 17.1875 -18.320312 17.375 -18.28125 C 18.539062 -17.9375 19.554688 -17.554688 20.421875 -17.140625 C 21.285156 -16.734375 22.195312 -16.171875 23.15625 -15.453125 C 24.113281 -14.742188 24.859375 -13.84375 25.390625 -12.75 C 25.921875 -11.65625 26.1875 -10.414062 26.1875 -9.03125 C 26.1875 -2.445312 21.613281 0.84375 12.46875 0.84375 C 10.394531 0.84375 8.425781 0.523438 6.5625 -0.109375 C 4.707031 -0.753906 3.363281 -1.394531 2.53125 -2.03125 L 1.296875 -3.046875 L 5.359375 -9.875 C 5.660156 -9.613281 6.054688 -9.300781 6.546875 -8.9375 C 7.035156 -8.582031 7.914062 -8.09375 9.1875 -7.46875 C 10.46875 -6.851562 11.582031 -6.546875 12.53125 -6.546875 C 14.59375 -6.546875 15.625 -7.238281 15.625 -8.625 C 15.625 -9.269531 15.359375 -9.769531 14.828125 -10.125 C 14.304688 -10.476562 13.414062 -10.878906 12.15625 -11.328125 C 10.894531 -11.785156 9.910156 -12.203125 9.203125 -12.578125 C 7.390625 -13.523438 5.957031 -14.585938 4.90625 -15.765625 C 3.851562 -16.953125 3.328125 -18.523438 3.328125 -20.484375 C 3.328125 -23.410156 4.460938 -25.691406 6.734375 -27.328125 C 9.015625 -28.972656 12.09375 -29.796875 15.96875 -29.796875 Z M 15.96875 -29.796875 "/></g></g></g></g></g></g><g clip-path="url(#d04514d090)"><path fill="#a46431" d="M 46.289062 90.191406 C 49.328125 90.191406 50.867188 93.886719 48.710938 96.042969 C 46.726562 98.027344 43.34375 96.90625 42.902344 94.171875 L 39.730469 94.171875 C 39.289062 96.90625 35.90625 98.027344 33.921875 96.042969 C 32.167969 94.289062 32.808594 91.328125 35.09375 90.429688 C 35.121094 90.058594 35.167969 89.695312 35.230469 89.339844 C 35.324219 88.8125 35.457031 88.285156 35.628906 87.75 L 33.269531 78.421875 C 33.027344 77.285156 31.621094 76.425781 30.550781 76.425781 C 29.925781 76.425781 29.425781 75.921875 29.425781 75.300781 C 29.425781 74.675781 29.925781 74.171875 30.550781 74.171875 C 32.34375 74.171875 34.359375 75.332031 35.175781 77.097656 L 52.589844 77.078125 C 53.929688 77.078125 54.796875 77.925781 54.515625 79.164062 L 52.789062 86.691406 C 52.414062 88.335938 51.039062 89.546875 49.332031 89.546875 L 49.332031 89.542969 L 38.789062 89.542969 L 38.789062 89.546875 L 37.484375 89.53125 L 37.359375 90.347656 C 38.195312 90.601562 38.890625 91.167969 39.320312 91.917969 L 43.3125 91.917969 C 43.910156 90.871094 45.035156 90.191406 46.289062 90.191406 Z M 47.121094 92.792969 C 46.375 92.050781 45.117188 92.585938 45.117188 93.617188 C 45.117188 94.664062 46.378906 95.1875 47.121094 94.449219 C 47.574219 93.992188 47.574219 93.25 47.121094 92.792969 Z M 37.175781 92.792969 C 36.441406 92.054688 35.175781 92.578125 35.175781 93.617188 C 35.175781 94.664062 36.441406 95.1875 37.175781 94.449219 C 37.636719 93.992188 37.632812 93.25 37.175781 92.792969 Z M 37.894531 87.523438 C 37.96875 87.839844 38.042969 87.304688 38.460938 87.300781 C 38.851562 87.300781 38.308594 87.292969 38.789062 87.292969 L 38.789062 87.300781 L 49.332031 87.300781 L 49.332031 87.292969 C 49.984375 87.292969 50.453125 86.816406 50.59375 86.191406 L 52.167969 79.324219 L 35.824219 79.339844 Z M 42.898438 65.386719 C 53.570312 66.289062 61.398438 75.992188 59.90625 86.71875 L 73.78125 82.074219 L 73.78125 30.902344 L 42.898438 41.246094 L 42.898438 44.902344 L 44.773438 44.402344 C 46.359375 43.976562 47.726562 45.105469 47.726562 46.726562 C 47.726562 47.941406 47.847656 48.8125 47.050781 49.878906 C 46.625 50.441406 46.027344 50.886719 45.355469 51.070312 L 42.898438 51.726562 L 42.898438 54.496094 L 44.695312 54.011719 C 46.320312 53.582031 47.726562 54.730469 47.726562 56.394531 C 47.726562 57.574219 47.816406 58.394531 47.027344 59.453125 C 46.59375 60.035156 45.972656 60.492188 45.28125 60.679688 L 42.898438 61.320312 Z M 59.367188 89.269531 C 59.324219 89.410156 59.285156 89.554688 59.242188 89.695312 L 81.574219 85.679688 L 81.574219 34.636719 L 76.035156 36.496094 L 76.035156 82.878906 C 76.035156 83.40625 75.667969 83.855469 75.175781 83.972656 Z M 57.21875 94.09375 C 50.804688 104.296875 36.5625 105.953125 28.007812 97.398438 C 20.667969 90.058594 20.667969 78.160156 28.007812 70.820312 C 31.265625 67.5625 35.714844 65.496094 40.644531 65.328125 L 40.644531 61.921875 L 38.9375 62.375 C 37.316406 62.808594 35.910156 61.660156 35.910156 59.992188 C 35.910156 58.816406 35.816406 57.996094 36.609375 56.9375 C 37.046875 56.351562 37.664062 55.898438 38.355469 55.707031 L 40.648438 55.097656 L 40.648438 52.328125 L 38.863281 52.804688 C 37.28125 53.230469 35.910156 52.101562 35.910156 50.484375 C 35.910156 49.265625 35.792969 48.394531 36.585938 47.328125 C 37.011719 46.765625 37.609375 46.320312 38.285156 46.140625 L 40.648438 45.507812 L 40.648438 40.4375 C 40.648438 39.90625 41.011719 39.464844 41.503906 39.34375 L 74.554688 28.273438 C 75.289062 28.027344 76.03125 28.582031 76.03125 29.339844 L 76.035156 29.339844 L 76.035156 34.128906 L 82.347656 32.015625 C 83.078125 31.769531 83.824219 32.320312 83.824219 33.078125 L 83.828125 33.078125 L 83.828125 37.675781 L 89.804688 35.636719 C 90.539062 35.386719 91.292969 35.941406 91.292969 36.703125 L 91.292969 90.808594 C 91.292969 91.425781 90.792969 91.933594 90.171875 91.933594 Z M 52.988281 72.414062 C 46.53125 65.957031 36.058594 65.957031 29.597656 72.414062 C 23.140625 78.875 23.140625 89.347656 29.597656 95.804688 C 36.058594 102.265625 46.53125 102.265625 52.988281 95.804688 C 59.445312 89.347656 59.445312 78.875 52.988281 72.414062 Z M 45.28125 56.1875 L 38.9375 57.886719 C 38.535156 57.988281 38.160156 58.523438 38.160156 58.957031 L 38.175781 60.132812 C 38.199219 60.210938 38.21875 60.238281 38.355469 60.203125 L 44.695312 58.5 C 45.097656 58.398438 45.472656 57.863281 45.472656 57.429688 L 45.457031 56.257812 C 45.4375 56.175781 45.417969 56.148438 45.28125 56.1875 Z M 45.355469 46.578125 L 38.859375 48.316406 C 38.503906 48.414062 38.160156 48.894531 38.160156 49.285156 C 38.160156 49.460938 38.121094 50.644531 38.199219 50.644531 L 44.773438 48.890625 C 45.128906 48.792969 45.472656 48.3125 45.472656 47.925781 C 45.472656 47.746094 45.515625 46.5625 45.4375 46.5625 C 45.410156 46.566406 45.382812 46.570312 45.355469 46.578125 Z M 49.765625 44.609375 L 69.390625 38.230469 C 70.121094 37.992188 70.867188 38.542969 70.867188 39.296875 L 70.867188 50.152344 C 70.867188 50.675781 70.503906 51.121094 70.019531 51.242188 L 50.398438 57.625 C 49.664062 57.863281 48.921875 57.308594 48.921875 56.554688 L 48.917969 56.554688 L 48.917969 45.703125 C 48.917969 45.171875 49.277344 44.730469 49.765625 44.609375 Z M 68.609375 40.847656 L 51.171875 46.515625 L 51.171875 55.007812 L 68.609375 49.335938 Z M 83.828125 40.050781 L 83.828125 86.617188 C 83.828125 87.207031 83.378906 87.691406 82.800781 87.742188 L 61.601562 91.550781 L 89.039062 89.757812 L 89.039062 38.273438 Z M 83.828125 40.050781 " fill-opacity="1" fill-rule="nonzero"/></g></svg>